<?xml version="1.0" encoding="utf-8"?>
<!-- Generator: Adobe Illustrator 14.0.0, SVG Export Plug-In . SVG Version: 6.00 Build 43363)  -->
<!DOCTYPE svg PUBLIC "-//W3C//DTD SVG 1.1//EN" "http://www.w3.org/Graphics/SVG/1.1/DTD/svg11.dtd">
<svg version="1.1" id="Layer_1" xmlns="http://www.w3.org/2000/svg" xmlns:xlink="http://www.w3.org/1999/xlink" x="0px" y="0px"
	 width="612px" height="792px" viewBox="0 0 612 792" enable-background="new 0 0 612 792" xml:space="preserve">
<g>
	<polygon fill-rule="evenodd" clip-rule="evenodd" fill="#FFFFFF" points="209,300 401.756,300 401.756,492.756 209,492.756 
		209,300 	"/>
	<path fill-rule="evenodd" clip-rule="evenodd" fill="#ED1C24" d="M384.736,374.364l-19.764,0.736l4.282,34.497l13.727-0.512
		L384.736,374.364L384.736,374.364z M385.197,424.252l-0.44-12.113l-17.048,0.635l0.444,12.113L385.197,424.252L385.197,424.252z"/>
	<path fill-rule="evenodd" clip-rule="evenodd" fill="#ED1C24" d="M274.318,409.447l-18.598-36.001l-16.457,1.777l-10.243,39.121
		l15.751-1.703l0.699-4.814l11.243-1.213l1.854,4.537L274.318,409.447L274.318,409.447z M253.159,397.971l-5.976,0.645l1.5-11.755
		l0.543-0.059c0.441,1.564,0.887,3.181,1.491,4.729L253.159,397.971L253.159,397.971z"/>
	<polygon fill-rule="evenodd" clip-rule="evenodd" fill="#ED1C24" points="309.062,418.07 315.492,380.833 301.284,378.335 
		299.119,390.877 290.078,389.287 292.244,376.744 278.038,374.245 271.608,411.479 285.814,413.977 288.049,401.039 
		297.088,402.633 294.855,415.57 309.062,418.07 	"/>
	<path fill-rule="evenodd" clip-rule="evenodd" fill="#ED1C24" d="M351.218,418.463l0.325-40.603l-15.358-6.227l-27.239,29.685
		l14.698,5.963l2.857-3.92l10.492,4.254l-0.475,4.885L351.218,418.463L351.218,418.463z M337.872,398.303l-5.573-2.262l6.793-9.672
		l0.504,0.208c-0.338,1.592-0.695,3.228-0.881,4.88L337.872,398.303L337.872,398.303z"/>
	
		<path fill-rule="evenodd" clip-rule="evenodd" fill="#00509A" stroke="#FFFFFF" stroke-width="1.5805" stroke-miterlimit="2.6131" d="
		M379.882,368.924l-19.761,0.736l4.28,34.496l13.727-0.51L379.882,368.924L379.882,368.924z M380.346,418.813l-0.441-12.113
		l-17.049,0.635l0.442,12.111L380.346,418.813L380.346,418.813z"/>
	
		<path fill-rule="evenodd" clip-rule="evenodd" fill="#00509A" stroke="#FFFFFF" stroke-width="1.5805" stroke-miterlimit="2.6131" d="
		M267.502,406.943l-18.596-36l-16.459,1.778l-10.243,39.119l15.75-1.701l0.699-4.816l11.242-1.215l1.854,4.539L267.502,406.943
		L267.502,406.943z M246.344,395.469l-5.976,0.645l1.5-11.757l0.543-0.06c0.441,1.567,0.887,3.182,1.49,4.731L246.344,395.469
		L246.344,395.469z"/>
	
		<polygon fill-rule="evenodd" clip-rule="evenodd" fill="#00509A" stroke="#FFFFFF" stroke-width="1.5805" stroke-miterlimit="2.6131" points="
		304.208,412.629 310.639,375.393 296.432,372.894 294.265,385.439 285.224,383.847 287.39,371.304 273.183,368.805 
		266.755,406.037 280.96,408.539 283.194,395.599 292.234,397.191 290.001,410.129 304.208,412.629 	"/>
	
		<path fill-rule="evenodd" clip-rule="evenodd" fill="#00509A" stroke="#FFFFFF" stroke-width="1.5805" stroke-miterlimit="2.6131" d="
		M346.363,413.021l0.325-40.6l-15.357-6.229l-27.239,29.687l14.698,5.961l2.855-3.922l10.494,4.256l-0.474,4.887L346.363,413.021
		L346.363,413.021z M333.018,392.862l-5.574-2.261l6.793-9.67l0.506,0.205c-0.34,1.592-0.694,3.228-0.884,4.883L333.018,392.862
		L333.018,392.862z"/>
</g>
</svg>
