<?xml version="1.0" encoding="utf-8"?>
<!-- Generator: Adobe Illustrator 19.2.1, SVG Export Plug-In . SVG Version: 6.00 Build 0)  -->
<!DOCTYPE svg PUBLIC "-//W3C//DTD SVG 1.1//EN" "http://www.w3.org/Graphics/SVG/1.1/DTD/svg11.dtd">
<svg version="1.1" id="Ebene_1" xmlns="http://www.w3.org/2000/svg" xmlns:xlink="http://www.w3.org/1999/xlink" x="0px" y="0px"
	 viewBox="0 0 100 100" style="enable-background:new 0 0 100 100;" xml:space="preserve">
<style type="text/css">
	.st0{fill:#EEEEEE;}
	.st1{fill:#EB721D;}
	.st2{fill:none;}
	.st3{fill:#3C4244;}
	.st4{font-family:'MyriadPro-Semibold';}
	.st5{font-size:12px;}
</style>
<rect x="-0.2" class="st0" width="100" height="100"/>
<g>
	<path class="st1" d="M70.5,25.3c-0.7-0.1-1.4-0.2-2.1-0.4c-2.3-0.6-4.3-1.8-6.3-3c-3.1-1.9-6.2-3.9-9.5-5.4
		c-1.9-0.9-3.6-1.1-5.5-0.1c-2,1.1-4.1,2.1-6.1,3.3c-2,1.1-3.9,2.4-5.9,3.5c-1.6,0.9-3.2,1.6-5,1.9c-0.3,0.1-0.6,0.1-1,0.1
		c-1.9,0.2-2.7,1.1-2.5,3c0.3,3.1,0.6,6.2,1.1,9.3c0.8,5.2,2.3,10.2,4.6,14.9c3.6,7.3,9,13,16.1,17.1c0.8,0.5,1.6,0.5,2.4,0
		c1.6-1,3.2-2,4.7-3.1c6.3-4.7,10.6-10.9,13.3-18.2c2.4-6.6,3.5-13.4,3.9-20.9C72.9,26.4,72,25.5,70.5,25.3z M57.9,49.4l0.1-0.1
		c0,1.3-0.9,2.2-2.2,2.2H43.7c-1.3,0-2.8-0.9-2.8-2.1v-7.5c0-0.8,0.7-1.5,1.3-2c-0.1-0.4,0-0.9,0-1.4c0-4.2,3.4-7.7,7.5-7.7
		c4.1,0,7.5,3.4,7.5,7.7c0,0.5-0.2,0.9-0.3,1.4c0.6,0.4,1,1.1,1,2V49.4z"/>
	<path class="st1" d="M49.8,33.7c-2.6,0-4.7,2.2-4.7,4.9c0,0.3,0,1,0.1,1h9.2c0.1,0,0.1-0.6,0.1-1C54.5,35.9,52.4,33.7,49.8,33.7z"
		/>
	<path class="st1" d="M49.7,42.5c-1.2,0-2.4,1-2.4,2.1c0,0.8,0.7,1.5,0.7,1.9v1.6c0,0.6,0.9,1,1.5,1s1.5-0.5,1.5-1v-1.6
		c0-0.4,1-1.1,1-1.9C51.9,43.5,50.8,42.5,49.7,42.5z"/>
</g>
<rect x="14.5" y="78.9" class="st2" width="70.7" height="12"/>
<text transform="matrix(1 0 0 1 19.4318 87.4414)" class="st3 st4 st5">Force Login</text>
</svg>
